<svg version="1.0" xmlns="http://www.w3.org/2000/svg" width="413.333" height="413.333" viewBox="0 0 310 310"><g fill="#fff"><path d="M150.5 15c-1.1.5-9.2 3.7-18 7.1-8.8 3.3-25 9.6-36 13.9-11 4.3-24.9 9.7-31 12-6 2.3-12.1 4.7-13.5 5.2-1.4.6-8.3 3.3-15.5 6.2l-13 5.1.1 4.5c.1 5.5 1.3 24.6 1.9 31.5.2 2.7.7 9 1 14 .3 4.9.8 11.5 1 14.5.2 3 .7 9.8 1 15 .3 5.2.8 11.5 1 14 .3 2.5.7 8.8 1 14 1.8 28.4 3.4 46.4 4.3 46.8.4.1 6.5 3.8 13.7 8.3 7.2 4.5 14.9 9.3 17.3 10.8 2.4 1.4 6.9 4.2 10 6.2 9.8 6.2 32.6 20.3 35.3 21.9 1.4.8 5.8 3.5 9.8 6 11.1 6.9 11.9 7.4 23 13.8l10.3 6.1 10.2-6.3c5.5-3.4 26.6-16.5 46.9-29.1 20.2-12.7 37.8-23.7 39.2-24.5 15.2-9.3 22.1-14.2 22.1-15.7.1-2.4 1.5-20 1.9-24.3.2-1.9.6-7.6 1-12.5.7-10.3 1.3-19.6 2-27.5.5-5.5 1.1-14.9 2-27 1-15.2 1.8-26.7 2-30 .2-1.9.6-9.6 1-17l.7-13.6-9.4-3.6c-20.3-8-48.6-19-53.8-21-3-1.2-6.8-2.7-8.5-3.4-1.6-.7-10.2-4.1-19-7.4-8.8-3.3-16.9-6.4-18-6.9-3.4-1.6-21-8.1-21.5-8-.3 0-1.4.4-2.5.9zm17.7 10.9C188 33.6 197 37.3 197 38.1c0 .4-2.3 1.7-5.2 2.9-5.9 2.5-8.5 2.7-44.3 3l-26 .2-6.2-2.7c-3.5-1.6-6.3-3.2-6.3-3.6 0-.6 41-17.5 43.2-17.8.4-.1 7.6 2.6 16 5.8zM97.9 47.7l7.3 2.8-.6 8.5c-.4 4.7-.9 10.5-1.3 13-.3 2.5-.6 5-.6 5.7 0 1.1-9.9 6-15.3 7.7-2.2.7-16.6-5.5-37.3-15.9l-9.5-4.7 9.5-4C59.3 56.8 89 45.1 90 45c.3 0 3.8 1.2 7.9 2.7zm125.1 0c1.9.8 4 1.6 4.5 1.7.6.2 2.1.8 3.5 1.3 1.4.6 7.5 3 13.5 5.3 16 6.1 20.5 8.1 20 9-.5.8-12.3 6.7-33.2 16.6-10.3 4.9-8.4 5-22.5-.6l-5.8-2.3-.1-4.6c0-2.5-.2-5.5-.4-6.6-.2-1.1-.5-5.3-.7-9.4l-.3-7.4 6.5-2.8c6.7-2.9 8.5-2.9 15-.2zm-40.3 4.1c2 .8 1.9.3 2.8 15.9l.7 11.3h-66l.3-6.8c.7-18.6.8-19.7 2.4-20.3 2.3-.9 57.6-1 59.8-.1zM54.8 90.5 77 101.4V122.7l-8.2 6.9c-4.5 3.8-10.8 9-14.1 11.7l-5.9 4.7-5.6-3.1c-8.8-4.7-7.9-1.9-9.7-30.4-.3-4.4-.8-10.7-1.1-14-1.1-12.4-1.3-19.6-.6-19.2.4.2 10.7 5.2 23 11.2zm219.7.7c-.4 5.7-.8 13-1 16.3-.2 3.3-.7 11.4-1 18-.8 13.3-.7 13.1-9.1 17.6-4.6 2.5-7.5 2.2-11.6-1.3-1.4-1.3-7.1-5.9-12.6-10.3l-10-7.9.5-10.1c.2-5.5.6-10.6.8-11.3.6-1.7 40.1-21.1 43.3-21.2.9 0 1.1 2.4.7 10.2zM194.4 90c4.2 1.8 7.8 3.6 8.1 4 .3.5-7 4.5-16.2 9.1-9.3 4.5-20.3 9.9-24.6 12-9 4.4-6.4 4.9-27.7-5.3-8.5-4.1-19.3-9.2-23.9-11.4l-8.4-3.9 7.6-3.5 7.6-3.6 35-.3 34.9-.2 7.6 3.1zm-75.1 32.2 24.8 12.2-.2 31.3c-.2 23.8-.6 31.3-1.5 31.3-.7 0-4.3-1.8-8.1-4-6.9-3.9-7.5-4.7-15.1-18-1.1-1.9-5-8.7-8.7-15-3.8-6.3-9-15.3-11.7-19.9l-4.9-8.5-.4-10.8c-.2-5.9-.1-10.8.3-10.8s11.9 5.5 25.5 12.2zm94.2-6.3c-.2 1.1-.5 5-.6 8.7-.2 6.1-.7 7.7-4.7 14.4-2.5 4.1-5.7 9.6-7.1 12.2-1.4 2.6-7 12.3-12.3 21.5l-9.8 16.9-7.2 3.9c-4 2.2-7.8 4.1-8.3 4.3-1.1.3-1.5-62.1-.5-63.1.3-.2 11.5-5.9 24.9-12.7 22.9-11.4 24.5-12 25.2-10.1.5 1.1.6 2.9.4 4zm-110.6 51c8.3 14.5 15.1 26.7 15.1 27 0 .7-20.5 16-25.7 19.2l-3.1 2-6.5-10.8c-7.6-12.9-16-27.3-21-36.4l-3.7-6.7 5.8-5.3c3.2-3 9.3-8.2 13.6-11.7 6.5-5.2 8.1-6.1 9.2-5 .7.7 8 13.2 16.3 27.7zm129.6-19.8c11.4 9.1 15.6 13.1 15.3 14.5-.7 2.9-29.4 53.3-30.4 53.4-1.1 0-18.9-11.9-25.6-17.2l-3.7-2.9 2.6-4.7c6-11 24-42.1 27.1-47 3-4.8 3.5-5.2 5-4 .9.8 5.3 4.3 9.7 7.9zM44.3 162.3c4.8 2.7 6.4 4.5 9.7 10.1 2.2 3.8 4 7 4 7.1 0 .2 1.7 3.2 3.8 6.6 2.2 3.5 5 8.4 6.4 10.9 1.4 2.5 5.1 8.9 8.2 14.2l5.6 9.7v8.5c0 4.8-.3 8.6-.7 8.6-.5 0-4.6-2.5-9.3-5.5-4.7-3-9.8-6.1-11.5-7-7.5-3.9-19.9-13.1-20.2-15-.1-1.1-.5-5.4-.8-9.5-.3-4.1-.8-9.5-1-12-.2-2.5-.7-9.5-1-15.5-.4-6.1-.9-11.8-1.1-12.8-.8-2.5 1.3-2.1 7.9 1.6zm225.1 6.4c-.2 4.9-.6 11.3-.8 14.3-.3 3-.8 10.2-1.2 16-.4 5.8-.7 11.3-.8 12.3-.1 1.2-6.2 5.6-18.6 13.2-10.2 6.3-19 11.9-19.7 12.4-2.7 2.4-3.3 1-3.3-7.4V221l10.7-18.8c5.8-10.3 11.3-19.8 12-21.2.8-1.4 2.9-5.2 4.8-8.5 2.8-5 4.4-6.6 9.7-9.6 3.4-2 6.6-3.5 7-3.3.3.2.4 4.3.2 9.1zM137 215.2c6.1 3.5 6.5 4 6.7 7.5.9 18.3 1 53.3 0 53.3-1.9 0-44.6-26.5-45.1-28-.3-.8-.7-5.3-1-10l-.5-8.5 8.2-5.2c18.8-12 22.3-14 23.7-13.5.8.3 4.4 2.3 8 4.4zm58.5 5.5 14.4 8.8-.4 4c-.2 2.2-.3 6.5-.4 9.6l-.1 5.5-21.2 13.1c-11.7 7.1-22.2 13.5-23.4 14.1-2 1.1-2 1-2.3-27.7l-.2-28.7 7.8-4.2c4.3-2.3 8.6-4 9.6-3.8.9.2 8.2 4.4 16.2 9.3z"/><path d="M151 58.3c-9.2 3.9-13 5.8-13 6.5 0 .8 7 3.9 13.6 6 3.1 1 7.6-.4 15.8-4.9l2.8-1.6-5.3-2.3c-11.2-4.8-11.3-4.8-13.9-3.7zM79.4 173.1c.2 5.6.6 10.2.8 10.4 2.2 1.7 13.3 7.5 14.4 7.5 2.3 0 1.6-19.8-.7-20.5-.8-.3-4.2-2.1-7.4-4-3.1-1.9-6.2-3.5-6.7-3.5-.6 0-.7 4.1-.4 10.1zM219 167.3l-7.5 4.3-.3 10.2c-.4 11.6-1.3 11.1 9.6 5.4 5.2-2.7 6.2-3.7 6.3-6 .6-12.7.6-18.2.1-18.2-.4 0-4.1 1.9-8.2 4.3z"/></g></svg>
